# xmcd CD database file
#
# Track frame offsets:
#	183
#	15858
#	28845
#	44345
#	58220
#	72645
#	86690
#	99983
#	113008
#	124883
#	136870
#	150375
#	164108
#	178508
#	192983
#	206643
#
# Disc length: 2915 seconds
#
# Revision: 1
# Processed by: cddbd v1.5.2PL0 Copyright (c) Steve Scherf et al.
# Submitted via: CDex 1.70beta2
#
DISCID=dd0b6110
DTITLE=Mildred Bailey - The rockin' Chair Lady les genies du jazz vol3 10
DYEAR=1990
DGENRE=Jazz
TTITLE0=When day is done
TTITLE1=Shoutin' in that amen corner
TTITLE2=What kind o' man is you
TTITLE3=Junk man
TTITLE4=Rockin' chair
TTITLE5=Smoke dreams
TTITLE6=I've got my love to keep me warm
TTITLE7=Rock it for me
TTITLE8=St Louis blues
TTITLE9='tain't what you do
TTITLE10=Barrelhouse music
TTITLE11=Arkansas blues
TTITLE12=There'll be some changes made
TTITLE13=A ghost of a chance
TTITLE14=darn that dream
TTITLE15=Peace, brother !
EXTD=YEAR: 1990
EXTT0=
EXTT1=
EXTT2=
EXTT3=
EXTT4=
EXTT5=
EXTT6=
EXTT7=
EXTT8=
EXTT9=
EXTT10=
EXTT11=
EXTT12=
EXTT13=
EXTT14=
EXTT15=
PLAYORDER=
